<svg xmlns="http://www.w3.org/2000/svg" width="32" height="32" viewBox="0 0 32 32"><path d="M26.476 18c1.1 0 2.247-.865 2.55-1.923l2.9-10.154C32.228 4.865 31.576 4 30.476 4H9.998c0-2.21-1.792-4-4-4H0v4h6v17c0 1.657 1.342 3 3 3h19c1.104 0 2-.895 2-2s-.896-2-2-2H10v-2h16.475zM10 8h18.088l-1.714 6H10V8zm2 21.5c0 1.375-1.125 2.5-2.5 2.5h-1C7.125 32 6 30.875 6 29.5v-1C6 27.125 7.125 26 8.5 26h1c1.375 0 2.5 1.125 2.5 2.5v1zm18 0c0 1.375-1.125 2.5-2.5 2.5h-1c-1.375 0-2.5-1.125-2.5-2.5v-1c0-1.375 1.125-2.5 2.5-2.5h1c1.375 0 2.5 1.125 2.5 2.5v1z"/></svg>