<svg xmlns="http://www.w3.org/2000/svg" width="253.333" height="253.334" viewBox="0 0 253.333 253.334"><circle fill-rule="evenodd" clip-rule="evenodd" cx="126.666" cy="126.667" r="126.666" fill="#1a1919"/><g fill-rule="evenodd" clip-rule="evenodd" fill="#ffffff"><path d="M86.26 180.5c-.165-3.764-.667-7.23-.35-10.618.234-2.526 1.165-5.156 2.41-7.393 5.68-10.198 11.19-20.524 17.54-30.298 3.847-5.918 7.68-11.786 10.44-18.252 2.91-6.825 5.38-13.84 8.034-20.774.17-.445.33-.905.41-1.375.865-4.893.86-4.914 5.717-4.898 2.964.01 5.928.084 8.892.162.283.008.56.245 1.492.678-2.148 5.755-3.936 11.657-6.524 17.183-3.083 6.582-6.623 12.983-10.407 19.194-2.813 4.62-6.495 8.7-9.502 13.215-6.07 9.118-11.953 18.362-17.888 27.57-.63.977-1.093 2.062-1.83 3.47 1.37.1 2.293.232 3.215.225 11.544-.107 23.087-.27 34.632-.325 1.866-.01 2.092-1.316 2.306-2.492.842-4.56 1.53-9.148 2.3-13.72.895-5.29 1.85-10.566 2.707-15.86.28-1.748 1.08-2.462 2.9-2.33 1.832.13 3.687.03 5.525-.084 2.05-.13 2.76.618 2.76 2.77-.003 10.016.17 20.032.29 30.048.003.232.087.463.215 1.103 3.765 0 7.587.012 11.41 0 4.376-.02 4.426 0 4.542 4.346.052 1.84.035 3.685-.023 5.526-.055 1.7-.81 2.568-2.704 2.55-3.604-.033-7.21.2-10.817.233-1.93.02-2.664.835-2.66 2.787.012 9.458-.13 18.915-.09 28.373.01 2.077-.708 2.933-2.748 2.9-4-.067-8-.046-11.998-.093-1.15-.014-1.566-.504-1.562-1.813.026-9.838-.135-19.678-.07-29.516.012-2.054-.827-2.477-2.553-2.464-9.542.073-19.084.11-28.625.158-5.05.025-10.1.06-15.15.064-.707 0-1.414-.153-2.234-.25zM120.46 39.814h6.226c-2.108 1.214-2.516 3.042-2.49 5.238.078 6.233.028 12.468.028 18.702l-.627.45c-.585-.405-1.333-.69-1.728-1.23-4.507-6.204-8.944-12.457-13.45-18.66-.362-.498-1.096-.727-1.657-1.08-.164.563-.454 1.124-.47 1.693-.13 4.63-.12 9.264-.342 13.887-.123 2.556.543 4.264 3.64 4.353-.102.2-.204.4-.305.602h-7.56c2.885-.763 3.047-2.767 2.983-5.236-.118-4.625.085-9.26.146-13.89.027-2.01.186-4.118-3.147-4.02 3.858-1.906 7.122-1.162 9.17 1.763 3.3 4.714 6.607 9.423 9.94 14.113.286.402.802.642 1.212.958.217-.45.608-.895.625-1.354.157-4.316.43-8.643.24-12.947-.05-1.15-1.585-2.233-2.436-3.343zM148.46 47.39c.213 4.646-3.585 8.683-8.4 8.93-4.813.247-9.28-3.402-9.392-7.67-.146-5.486 3.352-9.533 8.405-9.722 5.28-.2 9.806 3.28 9.388 8.46zm-15.135.383l.393.106c0 .558-.048 1.12.01 1.673.34 3.4 2.513 5.656 5.58 5.823 3.05.166 5.563-1.817 6.035-5.253.273-1.986.04-4.097-.295-6.096-.402-2.395-2.224-3.62-4.487-3.976-2.35-.37-4.56.047-5.59 2.566-.68 1.666-1.105 3.435-1.645 5.157zM154.84 51.442c.946 1.336 1.926 2.162 1.778 2.638-.243.79-1.13 1.535-1.93 1.904-.252.116-1.548-1.034-1.543-1.594.01-.76.813-1.513 1.694-2.948z"/></g></svg>
