<svg width="78" height="59" viewBox="0 0 78 59" xmlns="http://www.w3.org/2000/svg"><title>rwd-logo-full</title><g fill="none" fill-rule="evenodd"><path d="M41.125.165h2.34l2.75 19.502.03-.002V.165h1.988V28.07h-2.428c-.9-5.97-1.802-11.94-2.704-17.91-.01 0-.02 0-.032.002v17.906h-1.943V.165zm-1.627 14.212c0 2.06.006 4.12-.002 6.18-.005 1.15-.016 2.302-.058 3.452-.03.82-.183 1.624-.517 2.384-.433.988-1.17 1.597-2.238 1.796-.82.153-1.635.135-2.435-.112-.85-.263-1.423-.83-1.77-1.64-.316-.73-.456-1.5-.477-2.286-.037-1.355-.046-2.71-.048-4.065-.005-4.178-.005-8.355 0-12.533 0-1.082.005-2.164.05-3.245.035-.884.184-1.753.57-2.566C33 .844 33.7.3 34.674.107c.808-.16 1.613-.15 2.402.094 1.04.32 1.674 1.05 2.016 2.056.274.806.366 1.643.368 2.487.008 3.21.003 6.423.003 9.634h.035zm-2.24-.96h-.013c0-2 .003-4.002 0-6.003-.002-.96-.01-1.92-.023-2.88-.008-.505-.056-1.006-.22-1.492-.163-.487-.497-.758-1.002-.82-.138-.018-.28-.016-.42-.01-.538.018-.955.256-1.132.77-.12.352-.196.733-.21 1.104-.036 1.023-.033 2.047-.038 3.07-.01 1.862-.022 3.723-.022 5.585 0 2.886.007 5.772.013 8.657.002.774-.003 1.548.012 2.32.01.506.03 1.013.2 1.497.208.586.65.896 1.29.908.62.01 1.062-.253 1.254-.854.14-.437.214-.905.246-1.364.048-.69.037-1.383.044-2.074.01-1.193.02-2.385.022-3.578.004-1.61 0-3.223 0-4.835zM7.53 28.074h-2.29L3.26 14.91H2.167v13.156H.072V.156h.18c1.08 0 2.16-.01 3.24.002.555.006 1.1.097 1.594.382.637.367 1.01.945 1.278 1.605.28.69.39 1.42.45 2.155.13 1.562.134 3.126.1 4.69-.027 1.12-.1 2.24-.414 3.328-.163.564-.43 1.076-.807 1.53-.078.093-.16.202-.264.25-.19.086-.182.21-.153.377.222 1.304.44 2.61.655 3.914.25 1.517.496 3.034.747 4.552.226 1.373.456 2.747.684 4.12.055.332.107.664.163 1.013zM2.2 12.868c.287-.014.56-.03.83-.04.664-.026.992-.258 1.223-.872.033-.087.06-.176.08-.266.224-.926.294-1.874.298-2.818.007-1.498-.05-2.997-.1-4.496-.013-.432-.06-.868-.233-1.277-.168-.402-.388-.776-.856-.833-.405-.05-.82-.01-1.24-.01v10.61zm64.326 15.206H63.91L61.073.166h2.204l1.984 22.81.026.002c.02-.197.044-.394.06-.592l.256-3.093c.076-.89.157-1.782.233-2.674.064-.753.123-1.506.186-2.26l.195-2.257.19-2.24.232-2.727.188-2.24c.077-.904.155-1.807.23-2.71.053-.62.106-1.24.154-1.86.007-.1.006-.175.147-.174.648.007 1.296.003 1.944.004.023 0 .045.006.095.014l-2.87 27.904zM23.71.154h.213c1.073 0 2.147.018 3.22-.004 1.11-.023 1.928.452 2.546 1.347.398.577.554 1.233.684 1.9.272 1.39.363 2.8.355 4.213-.008 1.214-.026 2.43-.08 3.642-.043.945-.16 1.887-.486 2.786-.32.878-.85 1.582-1.713 2-.526.256-1.094.348-1.672.38-.295.014-.592 0-.91 0v11.653h-2.16V.156zm2.165 14.166c.27 0 .52.013.77-.002.537-.032.956-.26 1.217-.75.262-.492.44-1.016.48-1.568.075-1.025.137-2.052.157-3.08.016-.905.004-1.814-.06-2.717-.055-.797-.176-1.592-.312-2.38-.08-.46-.292-.884-.66-1.198-.47-.397-1.035-.302-1.592-.3V14.32zM15.22 20.793h2.034v.214c0 1.13-.01 2.258.006 3.386.005.328.05.663.135.98.257.96 1.278 1.095 1.897.794.31-.15.47-.427.58-.733.205-.565.242-1.156.25-1.75.018-1.175-.02-2.348-.183-3.513-.19-1.34-.547-2.638-1.102-3.87-.624-1.386-1.294-2.752-1.957-4.12-.648-1.34-1.207-2.71-1.5-4.18-.174-.873-.26-1.755-.285-2.645-.026-.858.012-1.708.23-2.542.244-.93.686-1.737 1.518-2.28.61-.4 1.293-.534 2.012-.525.66.01 1.282.138 1.837.517.686.468 1.06 1.143 1.282 1.915.19.662.27 1.342.28 2.03.017 1.058.028 2.116.04 3.174.002.046-.003.09-.006.143H20.16V7.58c0-1.07.003-2.14-.006-3.21-.004-.502-.07-.997-.242-1.472-.176-.482-.54-.746-1.04-.758-.635-.016-1.04.188-1.212.706-.137.414-.228.854-.262 1.29-.186 2.374.334 4.612 1.39 6.734.523 1.05 1.064 2.09 1.592 3.137.797 1.58 1.376 3.233 1.688 4.975.308 1.724.408 3.462.285 5.21-.057.806-.22 1.594-.573 2.335-.434.912-1.132 1.483-2.134 1.67-.835.157-1.66.123-2.46-.173-1.053-.39-1.645-1.18-1.856-2.26-.07-.356-.102-.725-.105-1.09-.013-1.25-.005-2.5-.005-3.752v-.128zm34.244-.004h2.03v.204c0 1.1-.01 2.2.006 3.298.006.357.046.722.134 1.067.248.975 1.293 1.117 1.918.798.297-.153.455-.426.564-.727.193-.537.254-1.098.242-1.662-.022-1.022-.028-2.048-.117-3.065-.133-1.53-.534-3.006-1.163-4.406-.612-1.365-1.274-2.708-1.925-4.056-.585-1.208-1.11-2.437-1.42-3.75-.218-.91-.36-1.834-.376-2.772-.01-.65-.015-1.302.042-1.948.084-.962.36-1.867.997-2.628C50.925.51 51.61.16 52.418.05c.56-.077 1.114-.06 1.663.09.867.236 1.466.78 1.857 1.57.32.645.48 1.34.512 2.047.056 1.306.06 2.615.085 3.923 0 .033-.004.067-.007.107H54.4V7.58c0-1.08.005-2.163-.006-3.245-.005-.483-.07-.96-.236-1.42-.183-.502-.542-.765-1.062-.775-.63-.012-1.034.207-1.21.738-.126.382-.203.787-.245 1.188-.09.882-.045 1.767.072 2.644.137 1.032.386 2.044.81 2.996.46 1.033.968 2.045 1.474 3.056.595 1.19 1.21 2.367 1.636 3.63.37 1.097.638 2.216.8 3.362.18 1.293.24 2.592.197 3.895-.035.985-.175 1.953-.598 2.86-.493 1.058-1.336 1.62-2.487 1.743-.74.078-1.47.028-2.166-.246-1.026-.403-1.603-1.184-1.808-2.24-.074-.38-.1-.773-.103-1.16-.014-1.2-.006-2.397-.006-3.596v-.22zM8.62.164h6.242v2.072H10.79v10.686h3.58v2.094h-3.58V25.98h4.104v2.09H8.62V.164zm68.108 25.817v2.085H70.44V.164h6.244v2.07H72.61v10.69h3.58v2.093h-3.58v10.965h4.12-.002zm-16.6 2.093H57.95V.167h2.178v27.908z" fill="#1A1919"/><path d="M66.48 30.66c.306.103.63.172.918.313.956.466 1.482 1.27 1.663 2.292.09.5.123 1.014.14 1.523.022.733.008 1.466.004 2.2-.005.796-.017 1.592-.026 2.39 0 .033-.004.066-.007.11h-2.127v-.203c0-1.583.002-3.165-.008-4.748-.002-.252-.045-.51-.103-.755-.123-.516-.474-.826-.958-.882-.547-.062-1.014.17-1.26.63-.218.406-.26.852-.265 1.3-.01.82-.004 1.64-.007 2.462-.004 1.215-.01 2.43-.013 3.647-.005 2.442-.01 4.886-.012 7.33 0 1.017.007 2.035.012 3.053.005 1.186.01 2.373.02 3.56.002.396.05.787.206 1.158.214.51.613.77 1.176.767.54-.003.992-.285 1.162-.79.103-.308.176-.643.178-.967.013-2.95.007-5.9.007-8.85 0-.05-.006-.102-.01-.167h-1.8v-2.09h3.917V58.72H67.85l-.104-.944c-.185.332-.41.556-.69.73-.4.25-.842.367-1.306.39-.75.035-1.46-.1-2.1-.52-.663-.432-1.037-1.065-1.188-1.818-.11-.538-.176-1.09-.194-1.64-.037-1.167-.033-2.336-.042-3.505-.01-1.14-.017-2.28-.023-3.42-.01-2.46-.027-4.92-.028-7.38 0-1.59.014-3.177.04-4.764.014-.748 0-1.5.167-2.24.228-1.01.645-1.9 1.553-2.487.33-.215.69-.358 1.08-.426.034-.006.066-.022.098-.033h1.365zm-12.64 0c.187.038.378.066.562.114 1.044.277 1.69.974 2.06 1.957.26.693.368 1.416.39 2.15.026.964.027 1.93.037 2.895.002.22 0 .44 0 .662h-2.122v-.215c0-1.006.005-2.012 0-3.02-.005-.54-.05-1.078-.228-1.596-.188-.548-.548-.81-1.122-.816-.617-.007-1.017.234-1.186.796-.122.408-.202.837-.233 1.26-.084 1.153-.008 2.3.238 3.43.292 1.342.815 2.596 1.44 3.815.71 1.384 1.464 2.746 2.04 4.194.458 1.157.787 2.35.994 3.578.227 1.345.314 2.7.294 4.06-.014.962-.104 1.913-.436 2.826-.25.687-.62 1.286-1.253 1.69-.435.278-.92.41-1.428.467-.1.01-.197.024-.295.035h-.49c-.338-.056-.684-.085-1.013-.173-1.16-.31-1.862-1.08-2.128-2.234-.084-.365-.122-.747-.126-1.122-.015-1.273-.006-2.547-.006-3.822 0-.045.007-.09.01-.144h2.02v.21c0 1.053-.006 2.106 0 3.16.004.428.01.86.154 1.273.302.867 1.48 1.18 2.12.56.283-.275.398-.637.472-1.01.154-.78.144-1.572.113-2.362-.024-.615-.053-1.23-.107-1.844-.126-1.443-.466-2.843-1.044-4.168-.627-1.435-1.312-2.845-1.995-4.254-.616-1.272-1.175-2.562-1.497-3.944-.24-1.033-.36-2.08-.375-3.14-.012-.816.01-1.628.218-2.422.252-.96.7-1.794 1.57-2.345.404-.257.85-.4 1.322-.463.052-.007.102-.022.152-.033h.876zm-51.67.16c.572 7.604 1.143 15.21 1.54 22.748.432-7.548 1.203-15.142 1.892-22.752.068-.005.12-.01.17-.01.613 0 1.225.002 1.838-.004.123 0 .176.03.187.158.104 1.216.212 2.432.32 3.647.1 1.1.205 2.198.304 3.298.077.84.148 1.68.22 2.518.08.897.16 1.794.236 2.692.077.91.148 1.82.222 2.728.078.968.16 1.935.233 2.902.068.9.126 1.798.185 2.696.046.697.088 1.393.15 2.092.006-.078.017-.157.02-.236.075-1.363.138-2.728.224-4.09.088-1.416.2-2.83.3-4.244.086-1.205.166-2.41.257-3.617.097-1.28.203-2.56.304-3.84.086-1.084.168-2.167.255-3.25.09-1.112.185-2.224.283-3.335.004-.04.07-.11.107-.11.665-.006 1.33-.005 2.02-.005L11.06 58.722H8.494c-.14-.523-1.728-19.655-1.806-21.638-.455 7.22-1.145 14.42-1.783 21.634H2.34C1.56 49.428.78 40.133 0 30.82h2.17zm19.54-.015h.187c1.26 0 2.52-.005 3.78.002.568.004 1.118.097 1.647.328.83.363 1.292 1.003 1.406 1.873.09.69.12 1.39.144 2.085.038 1.022.075 2.045.062 3.067-.018 1.284-.073 2.568-.14 3.85-.028.568-.15 1.125-.4 1.647-.198.415-.51.7-.942.853-.028.01-.054.02-.08.033-.005.002-.008.008-.012.013.19.085.39.15.568.257.505.306.747.795.876 1.348.174.747.2 1.51.212 2.27.03 1.94.06 3.883.057 5.825 0 .91-.045 1.824-.372 2.695-.14.378-.305.74-.584 1.04-.42.452-.956.678-1.553.7-1.083.037-2.17.03-3.253.04-.53.004-1.06 0-1.605 0V30.806zm2.127 25.86c.683 0 1.347.01 2.01-.003.33-.008.6-.17.742-.473.08-.17.135-.364.147-.55.037-.574.067-1.15.067-1.724 0-1.645-.008-3.29-.026-4.936-.008-.78-.026-1.558-.078-2.334-.04-.617-.38-1.042-1.08-1.013-.53.023-1.06.005-1.592.005h-.19v11.028zm0-13.02h.205c.514 0 1.028-.023 1.54.006.506.03.947-.328 1.013-.815.063-.46.102-.924.102-1.387.003-2.07-.008-4.14-.024-6.21-.004-.423-.014-.85-.082-1.266-.093-.57-.58-1.038-1.1-1.067-.54-.03-1.085-.008-1.627-.007-.008 0-.017.015-.027.024v10.723zm10.706 15.07v-27.91h.2c1.043 0 2.087-.008 3.132.003.614.007 1.22.093 1.78.364.796.383 1.294 1.022 1.585 1.838.194.542.277 1.105.304 1.673.057 1.16.092 2.323.127 3.485.02.604.023 1.21.024 1.814.006 2.6.012 5.2.012 7.802 0 .895 0 1.79-.022 2.687-.036 1.4-.084 2.8-.14 4.2-.035.84-.15 1.667-.52 2.435-.462.962-1.245 1.525-2.3 1.577-1.366.068-2.74.037-4.11.047-.02 0-.043-.01-.07-.014zm2.17-1.978H38.187c.616 0 1.093-.34 1.22-.938.08-.377.097-.772.104-1.158.02-1.07.026-2.14.025-3.21 0-3.24-.006-6.48-.013-9.72-.004-2.146-.012-4.292-.023-6.438 0-.26-.01-.524-.053-.78-.122-.726-.46-1.322-1.222-1.49-.485-.108-1.002-.067-1.513-.093v23.827zM14.426 30.81h6.243v2.074h-4.074v10.688h3.58v2.094h-3.578V56.63h4.11v2.086h-6.28V30.81zm30.97 12.77h3.58v2.09h-3.582v10.967h4.124v2.08h-6.29V30.815h6.25v2.07h-4.083V43.58zm25.436-12.768c.05-.002.095-.006.14-.007.683 0 1.366.003 2.05-.002.12 0 .165.027.183.16.164 1.2.34 2.402.51 3.603.17 1.202.333 2.404.503 3.605.145 1.036.296 2.07.442 3.104.17 1.202.333 2.404.503 3.605.17 1.2.343 2.4.514 3.602.088.632.173 1.264.28 1.896v-19.56h1.994v27.9h-2.43l-2.71-17.946-.036.003v17.947h-1.944v-27.91zm-12.503 0h2.178V58.72H58.33V30.812z" fill="#FFF"/></g></svg>