<?xml version="1.0" encoding="UTF-8"?><!DOCTYPE svg PUBLIC "-//W3C//DTD SVG 1.1//EN" "http://www.w3.org/Graphics/SVG/1.1/DTD/svg11.dtd"><svg xmlns="http://www.w3.org/2000/svg" style="display:none"><symbol id="icon-arrow-down" viewBox="0 0 23 23"><title>icon-arrow-down</title><path d="M11.5 23L23 11.5h-7.188V0H7.19v11.5H0L11.5 23z" fill-rule="evenodd"/></symbol><symbol id="icon-arrow-right" viewBox="0 0 19 16"><title>icon-arrow-right</title><path d="M10.615 15.233l7.618-7.613L10.615 0H5.592l5.79 5.792H0v3.686h11.344l-5.76 5.76 5.03-.005z" fill-rule="evenodd"/></symbol><symbol id="icon-arrow-up" viewBox="0 0 23 23"><title>icon-arrow-up</title><path d="M11.5 0L0 11.5h7.188V23h8.624V11.5H23L11.5 0z" fill-rule="evenodd"/></symbol><symbol id="icon-arrow" viewBox="0 0 30 13"><title>icon-arrow</title><path d="M22.712.05c.212-.088.407-.06.586.085l6.428 5.86c.112.11.168.24.168.384 0 .15-.056.29-.168.4l-6.428 5.94c-.18.14-.374.17-.586.08-.212-.1-.318-.268-.318-.49V8.57H1.5c-.156 0-.284-.05-.384-.15-.1-.1-.15-.23-.15-.384V4.822c0-.156.05-.284.15-.385.1-.1.228-.15.385-.15h20.9V.537c0-.235.11-.397.32-.486z" fill-rule="evenodd"/></symbol><symbol id="icon-burger" viewBox="0 0 30 18"><title>icon-burger</title><path d="M0 0h29.953v3.023H0V0zm0 7.523h29.953v3.024H0V7.523zm0 7.524h29.953V18H0v-2.953z" fill-rule="evenodd"/></symbol><symbol id="icon-cart" viewBox="0 0 32 32"><path d="M26.476 18c1.1 0 2.247-.865 2.55-1.923l2.9-10.154C32.228 4.865 31.576 4 30.476 4H9.998c0-2.21-1.792-4-4-4H0v4h6v17c0 1.657 1.342 3 3 3h19c1.104 0 2-.895 2-2s-.896-2-2-2H10v-2h16.475zM10 8h18.088l-1.714 6H10V8zm2 21.5c0 1.375-1.125 2.5-2.5 2.5h-1C7.125 32 6 30.875 6 29.5v-1C6 27.125 7.125 26 8.5 26h1c1.375 0 2.5 1.125 2.5 2.5v1zm18 0c0 1.375-1.125 2.5-2.5 2.5h-1c-1.375 0-2.5-1.125-2.5-2.5v-1c0-1.375 1.125-2.5 2.5-2.5h1c1.375 0 2.5 1.125 2.5 2.5v1z"/></symbol><symbol id="icon-meow" viewBox="0 0 32 32"><path d="M27 0c2.76 0 5 2.24 5 5 0 1.126-.372 2.164-1 3l-2 2-7-7 2-2c.836-.628 1.874-1 3-1zM2 23l-2 9 9-2 18.5-18.5-7-7L2 23zm20.362-11.638l-14 14-1.724-1.724 14-14 1.724 1.724z"/></symbol></svg>