<svg xmlns="http://www.w3.org/2000/svg" width="512" height="512" viewBox="0 0 512 512"><g><path d="M254.5 16.5c-131.996 0-239 107.004-239 239s107.004 239 239 239 239-107.004 239-239-107.004-239-239-239zm158.392 397.392C370.584 456.2 314.332 479.5 254.5 479.5s-116.084-23.3-158.392-65.608C53.8 371.584 30.5 315.332 30.5 255.5S53.8 139.416 96.108 97.108 194.668 31.5 254.5 31.5s116.084 23.3 158.392 65.608C455.2 139.416 478.5 195.668 478.5 255.5s-23.3 116.084-65.608 158.392z"/><path d="M384.49 215.23c-.05-.315-.12-.63-.187-.933-.05-.182-.117-.366-.188-.548-.084-.273-.178-.55-.288-.823-.068-.182-.162-.366-.237-.548-.12-.252-.24-.508-.392-.75-.104-.184-.205-.35-.315-.523-.162-.225-.307-.46-.484-.68-.12-.175-.24-.32-.376-.486-.188-.207-.374-.412-.562-.61-.153-.15-.29-.295-.44-.436-.205-.182-.418-.366-.64-.54-.178-.132-.33-.263-.51-.382-.06-.043-.128-.1-.188-.15l-119.455-79.62c-3.77-2.51-8.687-2.51-12.456 0L128.327 207.83c-.073.05-.124.106-.184.15-.174.122-.34.25-.514.38-.21.175-.43.35-.64.542-.147.13-.293.29-.442.425-.19.2-.383.404-.557.612-.13.165-.263.31-.382.484-.174.23-.323.456-.48.68-.115.176-.217.34-.323.524-.14.242-.26.498-.383.75-.085.18-.175.356-.25.547-.108.272-.2.55-.29.822-.06.183-.125.366-.175.548-.077.302-.14.617-.19.932-.026.166-.07.324-.095.485-.064.48-.098.98-.098 1.476v79.626c0 .504.034.988.098 1.472.026.172.06.316.094.486.05.313.115.63.19.937.052.186.116.374.175.55.09.272.184.554.29.827.077.187.167.356.252.543.123.255.242.512.383.76.098.177.208.34.323.517.157.23.306.46.48.682.12.17.25.322.383.476.184.212.367.425.558.613.15.15.294.296.443.44.2.18.422.356.64.535.173.145.34.265.513.392.06.045.12.095.184.145l119.447 79.63c1.89 1.226 4.058 1.855 6.228 1.855s4.347-.63 6.228-1.886l119.447-79.632c.068-.052.138-.102.188-.145.18-.13.34-.247.51-.392.222-.178.443-.348.64-.536.16-.143.296-.29.44-.44.197-.188.384-.4.554-.614.144-.15.272-.307.392-.477.17-.22.322-.45.477-.68.117-.178.22-.34.312-.52.146-.255.265-.5.392-.757.085-.187.18-.356.247-.545.11-.27.195-.544.29-.823.05-.18.128-.356.18-.554.074-.307.145-.62.195-.937.017-.17.067-.314.085-.49.067-.444.102-.938.102-1.433V217.19c0-.498-.034-.987-.102-1.476-.02-.16-.072-.32-.09-.485zM254 283.57l-39.718-26.568L254 230.432l39.73 26.57L254 283.57zm-11.23-72.646l-48.69 32.567-39.31-26.284 88-58.664v52.382zm-68.89 46.078l-28.097 18.793V238.21L173.88 257zm20.2 13.51l48.69 32.568v52.38l-88-58.66 39.31-26.287zm71.15 32.568l48.69-32.567 39.31 26.287-88 58.66v-52.38zm68.878-46.078l28.11-18.793v37.585l-28.11-18.793zm-20.188-13.51l-48.69-32.568v-52.39l88.003 58.664-39.313 26.293z"/></g></svg>