<svg height="512" viewBox="0 0 512 512" width="512" xmlns="http://www.w3.org/2000/svg"><g fill="#fff"><path d="M254.5 16.5c-131.996 0-239 107.004-239 239s107.004 239 239 239 239-107.004 239-239-107.004-239-239-239zm158.392 397.392C370.584 456.2 314.332 479.5 254.5 479.5c-59.833 0-116.084-23.3-158.392-65.608C53.8 371.584 30.5 315.332 30.5 255.5c0-59.833 23.3-116.084 65.608-158.392C138.416 54.8 194.668 31.5 254.5 31.5c59.833 0 116.084 23.3 158.392 65.608C455.2 139.416 478.5 195.668 478.5 255.5c0 59.833-23.3 116.084-65.608 158.392zM254 118.205c-75.97 0-137.563 61.594-137.563 137.563 0 60.788 39.412 112.34 94.08 130.527 6.876 1.26 9.386-2.99 9.386-6.616 0-3.276-.126-14.123-.193-25.61-38.253 8.313-46.34-16.22-46.34-16.22-6.262-15.886-15.272-20.117-15.272-20.117-12.502-8.53.948-8.363.948-8.363 13.812.957 21.083 14.173 21.083 14.173 12.274 21.024 32.207 14.945 40.032 11.42 1.25-8.867 4.81-14.946 8.732-18.372-30.537-3.475-62.66-15.28-62.66-67.99 0-15.03 5.365-27.288 14.147-36.92-1.4-3.492-6.137-17.488 1.36-36.42 0 0 11.537-3.695 37.834 14.105 10.965-3.065 22.728-4.576 34.424-4.626 11.687.05 23.46 1.577 34.44 4.642 26.248-17.817 37.8-14.106 37.8-14.106 7.524 18.95 2.79 32.93 1.378 36.406 8.816 9.63 14.14 21.89 14.14 36.918 0 52.846-32.175 64.483-62.82 67.892 4.953 4.265 9.336 12.628 9.336 25.457 0 18.387-.185 33.214-.185 37.748 0 3.66 2.502 7.943 9.47 6.6 54.627-18.22 94.005-69.773 94.005-130.528 0-75.97-61.593-137.565-137.562-137.565z"/></g></svg>