<svg height="512" viewBox="0 0 512 512" width="512" xmlns="http://www.w3.org/2000/svg"><g><path d="M374.5 369.5v-88.875c0-45.875-24.888-67.158-57.17-67.158-26.022 0-37.83 14.666-44.83 24.86V217.5h-49v152h49v-86.64c0-4.47.608-8.853 1.95-12.072 3.577-8.943 12.066-18.153 25.66-18.153 17.794 0 25.39 13.682 25.39 33.713V369.5h49zM171.684 141.034c-16.097 0-26.56 11.3-26.56 26.233 0 14.666 10.195 26.233 25.934 26.233h.357c16.365 0 26.56-11.567 26.56-26.233-.358-15.023-10.194-26.233-26.29-26.233zM145.5 217.5h49v152h-49zM254.5 16.5c-131.996 0-239 107.004-239 239s107.004 239 239 239 239-107.004 239-239-107.004-239-239-239zm158.392 397.392C370.584 456.2 314.332 479.5 254.5 479.5c-59.833 0-116.084-23.3-158.392-65.608C53.8 371.584 30.5 315.332 30.5 255.5c0-59.833 23.3-116.084 65.608-158.392C138.416 54.8 194.668 31.5 254.5 31.5c59.833 0 116.084 23.3 158.392 65.608C455.2 139.416 478.5 195.668 478.5 255.5c0 59.833-23.3 116.084-65.608 158.392z"/></g></svg>