<svg height="512" viewBox="0 0 512 512" width="512" xmlns="http://www.w3.org/2000/svg"><g><path d="M415 177.72c-10.697 4.756-22.21 7.963-34.288 9.398 12.333-7.383 21.79-19.08 26.25-33.03-11.536 6.845-24.306 11.814-37.91 14.495-10.885-11.6-26.402-18.854-43.572-18.854-32.964 0-59.693 26.726-59.693 59.698 0 4.672.526 9.226 1.548 13.603-49.616-2.492-93.61-26.254-123.053-62.373-5.14 8.812-8.08 19.066-8.08 30.017 0 20.71 10.537 38.984 26.555 49.687-9.78-.312-18.99-3-27.04-7.47-.007.247-.007.5-.007.754 0 28.92 20.58 53.04 47.89 58.535-5.008 1.358-10.282 2.09-15.728 2.09-3.85 0-7.59-.372-11.235-1.074 7.602 23.715 29.646 40.98 55.765 41.458-20.43 16.013-46.166 25.56-74.14 25.56-4.814 0-9.57-.285-14.24-.84 26.425 16.946 57.8 26.822 91.51 26.822 109.812 0 169.853-90.963 169.853-169.852 0-2.588-.053-5.168-.165-7.73 11.66-8.4 21.782-18.92 29.78-30.893zM254.5 16.5c-131.996 0-239 107.004-239 239s107.004 239 239 239 239-107.004 239-239-107.004-239-239-239zm158.392 397.392C370.584 456.2 314.332 479.5 254.5 479.5c-59.833 0-116.084-23.3-158.392-65.608C53.8 371.584 30.5 315.332 30.5 255.5c0-59.833 23.3-116.084 65.608-158.392C138.416 54.8 194.668 31.5 254.5 31.5c59.833 0 116.084 23.3 158.392 65.608C455.2 139.416 478.5 195.668 478.5 255.5c0 59.833-23.3 116.084-65.608 158.392z"/></g></svg>